<svg width="107" height="29" viewBox="0 0 107 29" fill="none" xmlns="http://www.w3.org/2000/svg">
<path d="M11.07 22.11C9.50999 22.11 8.05999 21.84 6.71999 21.3C5.37999 20.74 4.19999 19.97 3.17999 18.99C2.17999 17.99 1.39999 16.84 0.839987 15.54C0.279987 14.22 -1.34036e-05 12.8 -1.34036e-05 11.28C-1.34036e-05 9.76 0.279987 8.35 0.839987 7.05C1.39999 5.73 2.17999 4.58 3.17999 3.6C4.19999 2.6 5.37999 1.83 6.71999 1.29C8.07999 0.729998 9.52999 0.449998 11.07 0.449998C12.19 0.449998 13.28 0.599998 14.34 0.899998C15.42 1.2 16.41 1.63 17.31 2.19C18.23 2.75 19.02 3.43 19.68 4.23L17.19 6.72C16.41 5.78 15.49 5.07 14.43 4.59C13.37 4.11 12.25 3.87 11.07 3.87C10.03 3.87 9.06999 4.06 8.18999 4.44C7.30999 4.8 6.53999 5.32 5.87999 6C5.21999 6.66 4.69999 7.44 4.31999 8.34C3.95999 9.24 3.77999 10.22 3.77999 11.28C3.77999 12.32 3.95999 13.29 4.31999 14.19C4.69999 15.09 5.21999 15.88 5.87999 16.56C6.55999 17.22 7.34999 17.74 8.24999 18.12C9.14999 18.48 10.13 18.66 11.19 18.66C12.35 18.66 13.44 18.43 14.46 17.97C15.5 17.49 16.39 16.81 17.13 15.93L19.56 18.36C18.9 19.12 18.11 19.79 17.19 20.37C16.29 20.93 15.31 21.36 14.25 21.66C13.21 21.96 12.15 22.11 11.07 22.11ZM29.073 22.08C27.553 22.08 26.173 21.73 24.933 21.03C23.713 20.31 22.743 19.35 22.023 18.15C21.303 16.93 20.943 15.57 20.943 14.07C20.943 12.57 21.303 11.22 22.023 10.02C22.743 8.8 23.713 7.84 24.933 7.14C26.173 6.42 27.553 6.06 29.073 6.06C30.613 6.06 31.993 6.42 33.213 7.14C34.453 7.84 35.433 8.8 36.153 10.02C36.873 11.22 37.233 12.57 37.233 14.07C37.233 15.57 36.873 16.93 36.153 18.15C35.433 19.35 34.453 20.31 33.213 21.03C31.993 21.73 30.613 22.08 29.073 22.08ZM29.073 19.02C29.953 19.02 30.743 18.8 31.443 18.36C32.163 17.92 32.733 17.33 33.153 16.59C33.573 15.83 33.783 14.99 33.783 14.07C33.783 13.13 33.573 12.29 33.153 11.55C32.733 10.81 32.163 10.22 31.443 9.78C30.743 9.34 29.953 9.12 29.073 9.12C28.213 9.12 27.423 9.34 26.703 9.78C25.983 10.22 25.413 10.81 24.993 11.55C24.593 12.29 24.393 13.13 24.393 14.07C24.393 14.99 24.593 15.83 24.993 16.59C25.413 17.33 25.983 17.92 26.703 18.36C27.423 18.8 28.213 19.02 29.073 19.02ZM47.3543 22.08C45.8343 22.08 44.4543 21.73 43.2143 21.03C41.9943 20.31 41.0243 19.35 40.3043 18.15C39.5843 16.93 39.2243 15.57 39.2243 14.07C39.2243 12.57 39.5843 11.22 40.3043 10.02C41.0243 8.8 41.9943 7.84 43.2143 7.14C44.4543 6.42 45.8343 6.06 47.3543 6.06C48.8943 6.06 50.2743 6.42 51.4943 7.14C52.7343 7.84 53.7143 8.8 54.4343 10.02C55.1543 11.22 55.5143 12.57 55.5143 14.07C55.5143 15.57 55.1543 16.93 54.4343 18.15C53.7143 19.35 52.7343 20.31 51.4943 21.03C50.2743 21.73 48.8943 22.08 47.3543 22.08ZM47.3543 19.02C48.2343 19.02 49.0243 18.8 49.7243 18.36C50.4443 17.92 51.0143 17.33 51.4343 16.59C51.8543 15.83 52.0643 14.99 52.0643 14.07C52.0643 13.13 51.8543 12.29 51.4343 11.55C51.0143 10.81 50.4443 10.22 49.7243 9.78C49.0243 9.34 48.2343 9.12 47.3543 9.12C46.4943 9.12 45.7043 9.34 44.9843 9.78C44.2643 10.22 43.6943 10.81 43.2743 11.55C42.8743 12.29 42.6743 13.13 42.6743 14.07C42.6743 14.99 42.8743 15.83 43.2743 16.59C43.6943 17.33 44.2643 17.92 44.9843 18.36C45.7043 18.8 46.4943 19.02 47.3543 19.02ZM58.2255 21.78V0.779997L61.7355 0.149998V21.78H58.2255ZM66.8796 4.14C66.3196 4.14 65.8296 3.94 65.4096 3.54C65.0096 3.14 64.8096 2.65 64.8096 2.07C64.8096 1.49 65.0096 0.999997 65.4096 0.599998C65.8296 0.199998 66.3196 -1.54972e-06 66.8796 -1.54972e-06C67.4596 -1.54972e-06 67.9496 0.199998 68.3496 0.599998C68.7496 0.999997 68.9496 1.49 68.9496 2.07C68.9496 2.65 68.7496 3.14 68.3496 3.54C67.9496 3.94 67.4596 4.14 66.8796 4.14ZM63.9396 28.2C63.5996 28.2 63.2596 28.17 62.9196 28.11C62.5596 28.07 62.2696 28.02 62.0496 27.96V25.23C62.4096 25.31 62.8296 25.35 63.3096 25.35C63.9496 25.35 64.4096 25.21 64.6896 24.93C64.9896 24.65 65.1396 24.2 65.1396 23.58V6.33H68.6496V23.82C68.6496 25.22 68.2396 26.3 67.4196 27.06C66.6196 27.82 65.4596 28.2 63.9396 28.2ZM79.4637 22.08C77.9437 22.08 76.5637 21.73 75.3237 21.03C74.1037 20.31 73.1337 19.35 72.4137 18.15C71.6937 16.93 71.3337 15.57 71.3337 14.07C71.3337 12.57 71.6937 11.22 72.4137 10.02C73.1337 8.8 74.1037 7.84 75.3237 7.14C76.5637 6.42 77.9437 6.06 79.4637 6.06C81.0037 6.06 82.3837 6.42 83.6037 7.14C84.8437 7.84 85.8237 8.8 86.5437 10.02C87.2637 11.22 87.6237 12.57 87.6237 14.07C87.6237 15.57 87.2637 16.93 86.5437 18.15C85.8237 19.35 84.8437 20.31 83.6037 21.03C82.3837 21.73 81.0037 22.08 79.4637 22.08ZM79.4637 19.02C80.3437 19.02 81.1337 18.8 81.8337 18.36C82.5537 17.92 83.1237 17.33 83.5437 16.59C83.9637 15.83 84.1737 14.99 84.1737 14.07C84.1737 13.13 83.9637 12.29 83.5437 11.55C83.1237 10.81 82.5537 10.22 81.8337 9.78C81.1337 9.34 80.3437 9.12 79.4637 9.12C78.6037 9.12 77.8137 9.34 77.0937 9.78C76.3737 10.22 75.8037 10.81 75.3837 11.55C74.9837 12.29 74.7837 13.13 74.7837 14.07C74.7837 14.99 74.9837 15.83 75.3837 16.59C75.8037 17.33 76.3737 17.92 77.0937 18.36C77.8137 18.8 78.6037 19.02 79.4637 19.02ZM90.3349 21.78V0.779997L93.8449 0.149998V7.68C95.1049 6.64 96.6049 6.12 98.3449 6.12C99.8249 6.12 101.155 6.48 102.335 7.2C103.515 7.9 104.445 8.85 105.125 10.05C105.825 11.23 106.175 12.57 106.175 14.07C106.175 15.55 105.825 16.89 105.125 18.09C104.425 19.29 103.475 20.25 102.275 20.97C101.095 21.67 99.7649 22.02 98.2849 22.02C97.4649 22.02 96.6649 21.9 95.8849 21.66C95.1249 21.4 94.4249 21.04 93.7849 20.58V21.78H90.3349ZM97.8349 18.99C98.7749 18.99 99.6049 18.78 100.325 18.36C101.065 17.92 101.645 17.33 102.065 16.59C102.505 15.85 102.725 15.01 102.725 14.07C102.725 13.13 102.505 12.29 102.065 11.55C101.645 10.81 101.065 10.23 100.325 9.81C99.5849 9.37 98.7549 9.15 97.8349 9.15C97.0349 9.15 96.2849 9.3 95.5849 9.6C94.9049 9.88 94.3249 10.29 93.8449 10.83V17.34C94.3049 17.86 94.8849 18.27 95.5849 18.57C96.3049 18.85 97.0549 18.99 97.8349 18.99Z" fill="#274059"/>
</svg>
